# xmcd
# Track frame offsets:
# 150
# 16854
# 32619
# 47232
# 63734
# 77578
# 92527
# 108487
# 127071
# 138802
# 153317
# 168376
# 184439
# 201919
# 217765
#
# Disc length: 3090 seconds
# Revision: 0
# Processed by: cddbd v1.5.2PL0 Copyright (c) Steve Scherf et al.
# Submitted via: VisiTrax 2.10.0.248 - For more info visit www.synapsa.com
#
DISCID=c90c100f
DTITLE=Tom Astor - Ich Will Mehr
DYEAR=2005
DGENRE=Country
TTITLE0=Lieder Wie Diese
TTITLE1=Gib Mir Meine Freiheit Zurück
TTITLE2=Ich Steh' Wieder Im Feuer
TTITLE3=We Are The Same (Wir Sind Alle Gleich)
TTITLE4=Spanish Harlem (Deutsch)
TTITLE5=Freunde Für's Leben
TTITLE6=Ich Will Mehr
TTITLE7=Meine Zeit Hat Niemals Zeit
TTITLE8=Steh' Immer Wieder Auf
TTITLE9=Mein Guter Freund
TTITLE10=Ich Kann Auf Scherben Laufen
TTITLE11=Zwischen Himmel Und Erde
TTITLE12=Wenn Ich Auch Geh' (Danny Boy)
TTITLE13=Wird Der Kreislauf Nie Durchbrochen (Will The Circle Be Unbroken)
TTITLE14=Spanish Harlem (Englisch)
EXTD=
EXTT0=
EXTT1=
EXTT2=
EXTT3=
EXTT4=
EXTT5=
EXTT6=
EXTT7=
EXTT8=
EXTT9=
EXTT10=
EXTT11=
EXTT12=
EXTT13=
EXTT14=
PLAYORDER=
